<svg version="1.1" viewBox="0 0 500 500" xmlns="http://www.w3.org/2000/svg">
<path transform="translate(0)" d="m0 0h500v500h-500v-500z"/>
<path transform="translate(175.4 191.47)" d="m0 0c0.95766-0.013197 1.9153-0.026395 2.902-0.039992 1.6505-0.036429 1.6505-0.036429 3.3344-0.073593 1.2078-0.0060425 2.4156-0.012085 3.66-0.018311 1.2718-0.021466 2.5437-0.042932 3.8541-0.065048 3.4921-0.056755 6.9839-0.086664 10.476-0.10824 2.1846-0.013956 4.3692-0.032347 6.5538-0.052024 6.8429-0.060086 13.686-0.1033 20.529-0.12322 7.8849-0.023179 15.767-0.10198 23.65-0.2295 6.1021-0.095269 12.203-0.1401 18.306-0.1474 3.6412-0.0054777 7.2793-0.031807 10.92-0.11092 23.91-0.49158 23.91-0.49158 29.352 4.3466 2.6688 3.0691 4.3572 6.4625 6.0591 10.15 1.6985 2.2458 1.6985 2.2458 3.3477 3.9727 0.45955 0.52658 0.9191 1.0532 1.3926 1.5957 0.9144 1.0333 1.8312 2.0644 2.75 3.0938 2.3253 2.6733 4.0878 4.7466 4.5098 8.3379h2v3c-1.2646 0.13277-2.5291 0.26555-3.832 0.40234-1.6602 0.17821-3.3203 0.35661-4.9805 0.53516-1.2501 0.13052-1.2501 0.13052-2.5254 0.26367-1.2037 0.13052-1.2037 0.13052-2.4316 0.26367-0.73839 0.078552-1.4768 0.1571-2.2375 0.23804-2.1956 0.26864-2.1956 0.26864-4.9929 1.2971-1.6248 0.21282-3.2548 0.3868-4.8867 0.53516-1.4067 0.13052-1.4067 0.13052-2.8418 0.26367-0.97646 0.087012-1.9529 0.17402-2.959 0.26367-0.98807 0.090879-1.9761 0.18176-2.9941 0.27539-2.4392 0.22389-4.8786 0.44446-7.3184 0.66211 1.0788-0.0088824 2.1577-0.017765 3.2692-0.026916 10.167-0.081088 20.334-0.14105 30.502-0.18033 5.2272-0.020874 10.454-0.049189 15.681-0.094509 5.0445-0.043463 10.089-0.06738 15.133-0.077751 1.9245-0.0073906 3.8491-0.021823 5.7735-0.043411 2.6959-0.02904 5.3907-0.033036 8.0867-0.031181 0.79554-0.014381 1.5911-0.028762 2.4107-0.043579 3.7292 0.027751 5.9003 0.34297 9.0763 2.3659 2.161 2.2288 3.5464 4.4363 5.0669 7.1318l3 3v2h2c0.2475 0.94875 0.495 1.8975 0.75 2.875 0.86351 3.1947 0.86351 3.1947 3.043 3.957 3.1752 1.6803 4.6663 4.0942 6.7695 6.9805 1.1466 1.5565 1.1466 1.5565 2.3164 3.1445 1.299 1.8636 2.5517 3.762 3.7188 5.7109 1.2899 2.1451 2.6353 3.9504 4.2773 5.832 0.51691 0.59297 1.0338 1.1859 1.5664 1.7969 1.4042 1.5344 2.8839 2.999 4.3711 4.4531 2.1875 2.25 2.1875 2.25 3.1875 5.25 1.6405 1.6924 3.3121 3.3548 5 5 1.8602 2.0644 3.649 4.186 5.4375 6.3125 0.72884 0.85332 0.72884 0.85332 1.4724 1.7239 2.6268 3.1029 4.9555 6.2236 7.1526 9.6511 2.2123 2.998 3.8577 3.9112 7.5 4.6875 1.8096 0.23207 3.6227 0.43786 5.4375 0.625 2.3762 0.36758 4.7512 0.74271 7.125 1.125 1.958 0.29393 3.9162 0.5864 5.875 0.875v2l3.4375 0.375c7.4144 0.95796 13.595 1.8815 19.562 6.625v1c-6.75 0.125-6.75 0.125-9-1-1.6293-0.20839-3.2651-0.36752-4.9023-0.5-0.9726-0.0825-1.9452-0.165-2.9473-0.25-1.019-0.0825-2.038-0.165-3.0879-0.25-2.0094-0.1633-4.0185-0.32983-6.0273-0.5-0.89324-0.072188-1.7865-0.14438-2.7068-0.21875-2.3284-0.28125-2.3284-0.28125-5.3284-1.2812-1.6392-0.20214-3.2836-0.36407-4.9297-0.5-0.96035-0.0825-1.9207-0.165-2.9102-0.25-1.0016-0.0825-2.0032-0.165-3.0352-0.25-1.9768-0.16409-3.9534-0.33068-5.9297-0.5-0.8764-0.072188-1.7528-0.14438-2.6558-0.21875-2.5396-0.28125-2.5396-0.28125-4.9958-0.78125-2.8205-0.55441-5.5712-0.79552-8.4382-1-1.1208-0.0825-2.2417-0.165-3.3965-0.25-1.1621-0.0825-2.3242-0.165-3.5215-0.25-12.938-0.92777-12.938-0.92777-17.176-1.5312-5.7604-0.77461-11.584-0.79696-17.387-0.96875-2.3412-0.069772-4.6824-0.14264-7.0234-0.21875-1.0279-0.030293-2.0557-0.060586-3.1147-0.091797-2.6966-0.14652-5.3321-0.37527-8.0137-0.66666-20.327-2.0539-40.887-1.675-61.295-1.6571-3.8937 0.0025891-7.7875 1.6836e-4 -11.681-0.0013862-6.5292-0.0018028-13.058 5.3463e-4 -19.588 0.0053406-7.4771 0.0054412-14.954 0.0036732-22.431-0.0018264-6.4985-0.0045828-12.997-0.0051568-19.495-0.0025613-3.8468 0.0015344-7.6937 0.0018368-11.541-0.0015365-30.588-0.029884-30.588-0.029884-61.099 1.9216-2.6987 0.24732-5.3832 0.36968-8.0924 0.42561-32.471 0.84451-64.514 4.6097-96.692 8.8376-5.8433 0.76064-11.691 1.3964-17.558 1.9514 6.5249-7.0986 21.791-9.4755 31-11 1.9995-0.044022 4.0008-0.056441 6 0v-2l14-1 2-5 2-3h2l1-3 3-2c1.0038-1.7161 2.0043-3.4348 2.957-5.1797 1.4391-2.5117 3.0982-4.681 5.043-6.8203h2l0.8125-1.75c1.1875-2.25 1.1875-2.25 2.7347-4.0123 1.888-2.9081 1.8495-4.8379 1.8852-8.2914 0.019794-1.221 0.039588-2.4419 0.059982-3.6999 0.0063899-1.3137 0.01278-2.6273 0.019363-3.9808 0.016851-1.3619 0.035002-2.7239 0.054398-4.0858 0.047462-3.5772 0.077295-7.1544 0.10344-10.732 0.029825-3.6534 0.076349-7.3066 0.12146-10.96 0.085989-7.1627 0.15335-14.325 0.20898-21.488h-3v-10h35v10h-3v23h2l0.6875-2.125c1.8961-4.1533 4.7235-7.3449 8-10.5 1.5601-1.6344 2.3928-3.3234 3.3125-5.375h2c0.2475-0.53625 0.495-1.0725 0.75-1.625 1.5565-2.9574 3.2844-5.6722 5.25-8.375h2c0.34031-0.77344 0.34031-0.77344 0.6875-1.5625 1.7947-3.333 3.8122-6.5845 6.3125-9.4375h2l0.8125-1.75c3.1819-6.0288 3.1819-6.0288 6.5902-6.7785z" fill="#F8F8F8"/>
<path transform="translate(179,203)" d="m0 0c1.8453 2.626 2.9838 4.9513 4 8l1.9375 0.8125c2.9807 1.7161 3.0031 4.0093 4.0625 7.1875 1.3267 0.67979 2.6608 1.3453 4 2 1.4219 1.5938 1.4219 1.5938 2.75 3.5 2.4002 3.3407 4.8714 6.5967 7.4375 9.8125 0.65355 0.82113 1.3071 1.6423 1.9805 2.4883 1.7448 2.1774 1.7448 2.1774 3.5703 3.8672 1.2617 1.332 1.2617 1.332 1.2617 3.332h2c0.2475 0.94875 0.495 1.8975 0.75 2.875 0.86949 3.1974 0.86949 3.1974 3.082 4 2.9569 1.5344 4.1812 3.539 6.1055 6.25 3.6743 5.0762 7.5229 9.9701 11.5 14.812 4.9207 5.999 9.6898 12.085 14.344 18.293 2.1947 2.8615 2.1947 2.8615 5 5.4453 2.2188 2.3242 2.2188 2.3242 2.2188 5.3242-0.83318 0.010307-1.6664 0.020615-2.5248 0.031235-8.0107 0.099654-16.021 0.20234-24.032 0.3081-4.1143 0.054222-8.2286 0.10743-12.343 0.15798-16.757 0.20665-33.51 0.45387-50.26 0.97144-1.8552 0.054858-1.8552 0.054858-3.7478 0.11082-8.0763 0.26899-16.064 0.90233-24.096 1.7654-8.0041 0.85912-15.957 0.84467-23.996 0.65501v2c-7.0904 1.5097-13.75 2.2831-21 2 0.61179-3.654 2.1664-5.8604 4.4375-8.75 0.61746-0.79922 1.2349-1.5984 1.8711-2.4219 0.55816-0.60328 1.1163-1.2066 1.6914-1.8281h2l0.78125-1.6719c1.3984-2.6713 3.0064-5.0966 4.7188-7.5781 0.60844-0.89203 1.2169-1.7841 1.8438-2.7031 0.54656-0.67547 1.0931-1.3509 1.6562-2.0469h2c0.22688-0.51562 0.45375-1.0312 0.6875-1.5625 1.7947-3.333 3.8122-6.5845 6.3125-9.4375h2c0.22688-0.55688 0.45375-1.1138 0.6875-1.6875 1.3125-2.3125 1.3125-2.3125 3.8125-4.75 2.4518-2.5131 3.4616-4.2585 4.5-7.5625h2c0.26039-0.56848 0.52078-1.137 0.78906-1.7227 1.3155-2.4739 2.8447-4.5212 4.5859-6.7148 0.93006-1.1737 0.93006-1.1737 1.8789-2.3711 0.57621-0.72316 1.1524-1.4463 1.7461-2.1914 0.76312-0.99 1.5262-1.98 2.3125-3 1.6875-2 1.6875-2 3.6875-3 0.95349-1.7426 1.9065-3.4854 2.8555-5.2305 1.6035-2.4792 3.8427-3.9523 6.1445-5.7695 1.333-2.6182 1.333-2.6182 2-5h2c0.22688-0.55688 0.45375-1.1138 0.6875-1.6875 1.3125-2.3125 1.3125-2.3125 3.6875-4.625 2.1438-2.1948 3.3226-3.7048 4.75-6.3125 3.5417-6.375 3.5417-6.375 7.875-6.375z" fill="#070707"/>
<path transform="translate(368,239)" d="m0 0c3.2816 1.0939 3.7504 1.6391 5.707 4.3164 0.757 1.0238 0.757 1.0238 1.5293 2.0684 0.52014 0.71865 1.0403 1.4373 1.5762 2.1777 0.50854 0.69158 1.0171 1.3832 1.541 2.0957 1.0305 1.4014 2.059 2.8043 3.0857 4.2085 1.5854 2.1669 3.1733 4.3315 4.7717 6.4888 0.70262 0.95169 0.70262 0.95169 1.4194 1.9226 1.5155 1.9786 1.5155 1.9786 4.1821 4.4719 2.272 2.3369 2.4622 3.245 3.1875 6.25 0.87012 0.37898 0.87012 0.37898 1.7578 0.76562 3.087 1.6994 4.5043 3.9453 6.5547 6.7969 0.78957 1.0865 1.5799 2.1724 2.3711 3.2578 0.76441 1.0493 1.5288 2.0986 2.3164 3.1797 1.2843 1.6516 2.5751 3.2982 3.875 4.9375 6.125 7.8445 6.125 7.8445 6.125 11.062l4 1v4c-7.7159 0.15676-15.315-0.32547-23-1v-2c-1.1272 0.010151-2.2544 0.020303-3.4158 0.030762-11.346 0.069765-22.642-0.21758-33.973-0.77539-2.6754-0.13046-5.3512-0.24994-8.0271-0.36865-11.259-0.52516-22.4-1.4965-33.584-2.8867 0.82653-4.2962 2.8416-5.9885 6-9 3.0888-3.5715 5.4889-7.3552 7.8516-11.426 0.56848-0.77924 0.56848-0.77924 1.1484-1.5742h2l0.6875-2.125c1.6509-3.6163 3.6034-5.9627 6.3125-8.875h2v-3c1.6437-1.6893 3.3143-3.3526 5-5l2.1875-3.3125c0.59812-0.88688 1.1962-1.7738 1.8125-2.6875h2l1-4h2c0.2475-0.53625 0.495-1.0725 0.75-1.625 4.1071-7.8036 4.1071-7.8036 7.25-9.375z" fill="#0D0D0D"/>
<path transform="translate(214.69 309.87)" d="m0 0c3.8933 0.0025871 7.7866 1.688e-4 11.68-0.0013862 6.531-0.0018038 13.062 5.3686e-4 19.593 0.0053406 7.4765 0.0054368 14.953 0.0036768 22.43-0.0018264 6.4976-0.0045855 12.995-0.0051554 19.493-0.0025613 3.8463 0.0015336 7.6926 0.0018393 11.539-0.0015365 43.48-0.032819 43.48-0.032819 61.439 1.9185 2.9118 0.29641 5.8159 0.41281 8.7409 0.49902 1.7248 0.056074 1.7248 0.056074 3.4844 0.11328 2.3672 0.070545 4.7344 0.14086 7.1016 0.21094 6.0019 0.19557 11.871 0.51424 17.812 1.3945v1c-15.675 0.22865-31.338-0.44526-47-1v-2h-191v-1c18.231-0.97327 36.437-1.1503 54.688-1.1343z" fill="#3D3D3D"/>
<path transform="translate(162,258)" d="m0 0h14v15h-14v-15z" fill="#DCDCDC"/>
<path transform="translate(179,258)" d="m0 0c10.059-0.097656 10.059-0.097656 13 0 1 1 1 1 1.1328 3.9062-0.0025781 1.1859-0.0051562 2.3719-0.0078125 3.5938 0.0025781 1.1859 0.0051562 2.3719 0.0078125 3.5938-0.13281 2.9062-0.13281 2.9062-1.1328 3.9062-4.3353 0.14393-8.6616 0.042121-13 0v-15z" fill="#F9F9F9"/>
<path transform="translate(162,276)" d="m0 0h14v14h-14v-14z" fill="#E5E5E5"/>
<path transform="translate(179,277)" d="m0 0c9.2773-0.097656 9.2773-0.097656 12 0 1 1 1 1 1.0977 3.7227-0.048828 4.6387-0.048828 4.6387-0.097656 9.2773h-13v-13z" fill="#eee"/>
<path transform="translate(301,228)" d="m0 0v1c15.38 0.091683 30.749-0.19731 46.125-0.5 2.5195-0.048334 5.0391-0.096512 7.5586-0.14453 6.1055-0.1167 12.211-0.23531 18.316-0.35547l1 2c-30.006 0.80617-59.983 1.1394-90 1 5.2765-3.5177 10.864-3.1058 17-3z" fill="#838383"/>
<path transform="translate(356,271)" d="m0 0h12v11h-12v-11z" fill="#DBDBDB"/>
<path transform="translate(357,285)" d="m0 0h11v11h-11v-11z" fill="#E5E5E5"/>
<path transform="translate(370,271)" d="m0 0h11v11h-11v-11z" fill="#E4E4E4"/>
<path transform="translate(312,310)" d="m0 0c9.6383-0.12928 19.243 0.061598 28.875 0.4375 1.0447 0.039236 2.0894 0.078472 3.1658 0.1189 4.6414 0.1919 9.2471 0.44186 13.865 0.94751 7.4023 0.79443 14.844 0.88139 22.281 1.1016 6.0019 0.19557 11.871 0.51424 17.812 1.3945v1c-15.675 0.22865-31.338-0.44526-47-1v-2c-1.0038 0.0052368-2.0076 0.010474-3.0417 0.015869-3.7366 0.018148-7.4733 0.029599-11.21 0.039062-1.6149 0.0050178-3.2298 0.011833-4.8447 0.020508-2.3259 0.012178-4.6518 0.017814-6.9778 0.022217-1.0769 0.0077419-1.0769 0.0077419-2.1755 0.01564-3.7132 4.1225e-4 -7.1402-0.22385-10.75-1.1133v-1z" fill="#4D4D4D"/>
<path transform="translate(371,285)" d="m0 0h10v11h-10v-11z" fill="#E9E9E9"/>
<path transform="translate(416,298)" d="m0 0 3 2v2l4 1 1 6c-9.7266 0.11237-19.304-0.070274-29-1v-2c-1.1202 0.023203-2.2404 0.046406-3.3945 0.070312-1.4726 0.01876-2.9453 0.03696-4.418 0.054688-0.73799 0.016758-1.476 0.033516-2.2363 0.050781-3.8636 0.034965-5.6602 0.018194-8.9512-2.1758 7.59 0.33 15.18 0.66 23 1v2c0.82242-0.011602 1.6448-0.023203 2.4922-0.035156 6.9111-0.055863 13.65 0.16822 20.508 1.0352v-4l-1.875-0.1875c-2.125-0.8125-2.125-0.8125-3.375-3.375l-0.75-2.4375z" fill="#A7A7A7"/>
<path transform="translate(41.857 318.47)" d="m0 0c2.2485 0.56066 4.1584 0.6486 6.4714 0.63208 0.79922-0.0032227 1.5984-0.0064453 2.4219-0.0097656 0.825-0.0083789 1.65-0.016758 2.5-0.025391 0.84047-0.0045117 1.6809-0.0090234 2.5469-0.013672 2.0677-0.011749 4.1354-0.029683 6.2031-0.048828v1c-3.6247 0.48175-7.2498 0.95991-10.875 1.4375-1.5198 0.20206-1.5198 0.20206-3.0703 0.4082-6.3426 0.83349-12.685 1.5618-19.055 2.1543 2.2147-2.3067 3.927-3.6175 6.9375-4.75 0.66902-0.26297 1.338-0.52594 2.0273-0.79688 2.0352-0.45312 2.0352-0.45312 3.8918 0.012451z" fill="#BEBEBE"/>
<path transform="translate(179,258)" d="m0 0c2.1458-0.026859 4.2916-0.046331 6.4375-0.0625 1.195-0.011602 2.3899-0.023203 3.6211-0.035156 2.9414 0.097656 2.9414 0.097656 3.9414 1.0977 0.098929 2.1648 0.12971 4.3329 0.125 6.5 0.0025781 1.1859 0.0051562 2.3719 0.0078125 3.5938-0.13281 2.9062-0.13281 2.9062-1.1328 3.9062-2.1864 0.072589-4.375 0.083738-6.5625 0.0625-1.7963-0.013535-1.7963-0.013535-3.6289-0.027344-0.92684-0.011602-1.8537-0.023203-2.8086-0.035156v-2h12v-12h-12v-1z" fill="#818181"/>
<path transform="translate(301,228)" d="m0 0v1l12 1v1h-29c5.2765-3.5177 10.864-3.1058 17-3z" fill="#575757"/>
<path transform="translate(369,285)" d="m0 0h2v11h9v2h-11v-13z" fill="#5A5A5A"/>
<path transform="translate(99,299)" d="m0 0 1 2c-0.9375 2.125-0.9375 2.125-2 4h-2v2h10c-3.3137 2.2091-4.3446 2.2248-8.1875 2.125-0.90105-0.018047-1.8021-0.036094-2.7305-0.054688-0.68707-0.023203-1.3741-0.046406-2.082-0.070312 0.84744-4.4807 3.0203-6.6383 6-10z" fill="#6B6B6B"/>
<path transform="translate(176,259)" d="m0 0h3v13h-3v-13z" fill="#272727"/>
<path transform="translate(66,311)" d="m0 0h12v1c-3.414 0.70148-6.8315 1.3837-10.25 2.0625-0.96809 0.19916-1.9362 0.39832-2.9336 0.60352-1.4019 0.27554-1.4019 0.27554-2.832 0.55664-0.85884 0.17281-1.7177 0.34563-2.6025 0.52368-2.4339 0.25921-4.0708 0.0045082-6.3818-0.74634 4.537-1.4518 8.1806-2.2351 13-2v-2z" fill="#868686"/>
<path transform="translate(179,203)" d="m0 0 1 4-1.8125 0.3125c-2.4699 0.77626-3.51 1.7584-5.1875 3.6875-0.99-0.33-1.98-0.66-3-1 0.92653-1.1754 1.8666-2.3401 2.8125-3.5 0.52207-0.64969 1.0441-1.2994 1.582-1.9688 1.6055-1.5312 1.6055-1.5312 4.6055-1.5312z" fill="#454545"/>
<path transform="translate(439,311)" d="m0 0c5.5268-0.19392 9.7561 0.25205 15 2v1h-11v-2l-4-1z" fill="#999"/>
<path transform="translate(454,314)" d="m0 0h8v2l8 1c-3.8176 1.3743-7.0726 0.67975-11 0v-2h-5v-1z" fill="#9C9C9C"/>
<path transform="translate(484,322)" d="m0 0c2.6875 0.875 2.6875 0.875 5 2v2h-8v-2l3-2z" fill="#737373"/>
<path transform="translate(368,239)" d="m0 0c0.99 0.33 1.98 0.66 3 1v2l-7 3c1.75-4.875 1.75-4.875 4-6z" fill="#535353"/>
<path transform="translate(35.688 321.31)" d="m0 0c1.0931 0.22688 2.1862 0.45375 3.3125 0.6875-3.4019 2.0935-6.0527 2.1794-10 2 2.1071-3.0987 2.8199-3.0153 6.6875-2.6875z" fill="#8B8B8B"/>
</svg>
